<svg width="79" height="46" viewBox="0 0 79 46" fill="none" xmlns="http://www.w3.org/2000/svg">
<path d="M66.4459 10.3166H65.1681V3.62935C65.1681 1.39512 62.9922 -0.268919 60.6784 0.11334L34.5006 4.35134L8.33322 0.0563945C5.9993 -0.33315 3.83342 1.34457 3.83342 3.57017V10.3166H2.55561C1.14428 10.3166 0 11.3816 0 12.6955V40.0528C0 41.3665 1.14428 42.4317 2.55561 42.4317H23.439C25.6116 42.4317 26.6143 43.4167 27.8924 44.6064C28.851 45.4986 30.1511 46 31.5066 46C33.6734 46 35.3278 46 37.4947 46C38.8503 46 40.1503 45.4986 41.1088 44.6064C42.3866 43.417 43.3878 42.4317 45.5623 42.4317H66.4459C67.8573 42.4317 69.0016 41.3665 69.0016 40.0528V12.6955C69.0016 11.3816 67.8573 10.3166 66.4459 10.3166ZM61.1164 2.45744C61.8748 2.33136 62.6125 2.87182 62.6125 3.6295V33.2332C62.6125 33.8117 62.1683 34.3042 61.5569 34.4053L35.7786 38.6357V6.55896L61.1164 2.45744ZM6.38903 3.57017C6.38903 2.8339 7.09917 2.27174 7.88902 2.39812L33.223 6.55658V38.6357L7.44466 34.4053C6.83323 34.3042 6.38903 33.8117 6.38903 33.2332V3.57017ZM39.632 25.1441C39.5085 24.497 39.9727 23.8803 40.6676 23.7664L57.2791 21.0402C57.9717 20.9183 58.6368 21.3573 58.7591 22.0042C58.8826 22.6513 58.4184 23.268 57.7235 23.3819L41.112 26.1081C41.0371 26.1209 40.9622 26.1267 40.8887 26.1267C40.2797 26.1267 39.7406 25.7213 39.632 25.1441ZM39.632 19.1968C39.5085 18.5498 39.9727 17.933 40.6676 17.8192L57.2791 15.0929C57.9717 14.9733 58.6368 15.4101 58.7591 16.057C58.8826 16.7041 58.4184 17.3208 57.7235 17.4347L41.112 20.1609C41.0371 20.1737 40.9622 20.1795 40.8887 20.1795C40.2797 20.1795 39.7406 19.774 39.632 19.1968ZM39.632 13.2496C39.5085 12.6025 39.9727 11.9858 40.6676 11.8719L57.2791 9.14571C57.9717 9.02379 58.6368 9.46284 58.7591 10.1098C58.8826 10.7568 58.4184 11.3735 57.7235 11.4874L41.112 14.2136C41.0371 14.2264 40.9622 14.2322 40.8887 14.2322C40.2797 14.2322 39.7406 13.8268 39.632 13.2496ZM39.632 31.0913C39.5085 30.4443 39.9727 29.8275 40.6676 29.7136L57.2791 26.9874C57.9717 26.8677 58.6368 27.3046 58.7591 27.9515C58.8826 28.5985 58.4184 29.2153 57.7235 29.3291L41.112 32.0554C41.0371 32.0681 40.9622 32.0739 40.8887 32.0739C40.2797 32.0739 39.7406 31.6685 39.632 31.0913ZM12.4968 17.7866C10.604 15.695 10.2784 12.7793 11.9195 11.0598C13.9024 8.98245 17.5944 9.42761 19.806 11.8719C22.0177 10.1536 25.7096 10.9205 27.6925 13.6488C29.3336 15.907 29.0078 18.7157 27.1152 20.186L21.9241 24.219C20.7553 25.1271 18.8568 24.8155 17.6879 23.5236L12.4968 17.7866Z" fill="#2E2E2E"/>
</svg>
